Coordinates
version=1
nRows=13
nColumns=40
inDegrees=yes

Units are S.I. units (second, meters, Newtons, ...)
If the header above contains a line with 'inDegrees', this indicates whether rotational values are in degrees (yes) or radians (no).

endheader
time	pelvis_tilt	pelvis_list	pelvis_rotation	pelvis_tx	pelvis_ty	pelvis_tz	hip_flexion_r	hip_adduction_r	hip_rotation_r	knee_angle_r	knee_angle_r_beta	ankle_angle_r	subtalar_angle_r	mtp_angle_r	hip_flexion_l	hip_adduction_l	hip_rotation_l	knee_angle_l	knee_angle_l_beta	ankle_angle_l	subtalar_angle_l	mtp_angle_l	lumbar_extension	lumbar_bending	lumbar_rotation	arm_flex_r	arm_add_r	arm_rot_r	elbow_flex_r	pro_sup_r	wrist_flex_r	wrist_dev_r	arm_flex_l	arm_add_l	arm_rot_l	elbow_flex_l	pro_sup_l	wrist_flex_l	wrist_dev_l
      2.75000000	      6.37267627	     -1.73465333	      4.36166875	     -0.37835226	      0.80638252	     -1.06505456	     47.26899562	     -4.50400008	     -4.79460188	      1.87541479	      0.03273216	     -7.94207091	      0.00000000	      0.00000000	     44.64610805	      0.37032881	     -3.46289078	     89.72910006	      1.56606823	     27.65215141	      0.00000000	      0.00000000	    -26.18580591	     -1.91420673	      2.74787723	     89.95481149	     -2.62738510	     13.43967087	     41.98337062	     80.52696610	      0.00000000	      0.00000000	     89.96791585	     -0.89135163	     22.00183339	     48.44191937	     71.80796440	      0.00000000	      0.00000000
      2.75500000	      6.28564494	     -1.79117435	      4.47273189	     -0.37860922	      0.80500955	     -1.06518171	     47.47659697	     -4.55431138	     -4.91161342	      1.89873293	      0.03313914	     -7.81271722	      0.00000000	      0.00000000	     44.89411083	      0.43757139	     -3.30272545	     89.97371204	      1.57033752	     27.95423874	      0.00000000	      0.00000000	    -26.15042426	     -1.84453535	      2.64680599	     89.95529962	     -2.59111077	     13.90019496	     42.17652430	     75.29023314	      0.00000000	      0.00000000	     89.96807778	     -0.86266904	     22.02418348	     48.71014248	     66.60936734	      0.00000000	      0.00000000
      2.76000000	      6.24531104	     -1.80986562	      4.47947297	     -0.37877212	      0.80393543	     -1.06506031	     47.56947985	     -4.52343001	     -4.94501098	      1.74141452	      0.03039342	     -7.94864121	      0.00000000	      0.00000000	     45.07142197	      0.36595054	     -3.33869009	     90.17188326	      1.57379626	     27.84622248	      0.00000000	      0.00000000	    -26.17347429	     -1.88734716	      2.63483208	     89.95571338	     -2.65383034	     13.22594348	     42.23760446	     80.30765664	      0.00000000	      0.00000000	     89.96825535	     -0.78019850	     21.88685198	     48.72299237	     66.16579694	      0.00000000	      0.00000000
      2.76500000	      6.12139802	     -1.82075489	      4.53338787	     -0.37901168	      0.80260257	     -1.06500598	     47.81836609	     -4.54789520	     -5.07827324	      1.74277522	      0.03041717	     -7.97109310	      0.00000000	      0.00000000	     45.35288036	      0.37165187	     -3.31412191	     90.40449528	      1.57785610	     27.95776640	      0.00000000	      0.00000000	    -26.09366871	     -1.91414986	      2.54060932	     89.95603895	     -2.67539972	     13.78878351	     42.38236473	     75.24906787	      0.00000000	      0.00000000	     89.96838659	     -0.76996033	     21.91784239	     48.89594912	     62.70558470	      0.00000000	      0.00000000
      2.77000000	      6.07852431	     -1.87396595	      4.56099103	     -0.37921618	      0.80152046	     -1.06487347	     47.96022616	     -4.52194692	     -5.15867022	      1.75306998	      0.03059684	     -7.79477926	      0.00000000	      0.00000000	     45.54286544	      0.30347614	     -3.25700715	     90.60931809	      1.58143093	     27.90102811	      0.00000000	      0.00000000	    -26.11876540	     -1.91574404	      2.54743575	     89.95640807	     -2.72544664	     13.04424191	     42.39438751	     80.04350427	      0.00000000	      0.00000000	     89.96867617	     -0.64771841	     21.42932135	     48.70444032	     70.11973677	      0.00000000	      0.00000000
      2.77500000	      5.97650504	     -1.89441298	      4.62505210	     -0.37929843	      0.80032703	     -1.06477121	     48.14632275	     -4.53990540	     -5.19911202	      1.72713260	      0.03014415	     -7.75537726	      0.00000000	      0.00000000	     45.77330680	      0.27243373	     -3.26407410	     90.81549832	      1.58502946	     27.98504591	      0.00000000	      0.00000000	    -26.06120201	     -1.93696043	      2.39998795	     89.95690002	     -2.68033960	     12.96815627	     42.51715594	     79.98862973	      0.00000000	      0.00000000	     89.96877923	     -0.67345848	     21.57646338	     48.97846134	     63.15487969	      0.00000000	      0.00000000
      2.78000000	      5.83229715	     -1.84461370	      4.68643282	     -0.37958361	      0.79904152	     -1.06469438	     48.43059340	     -4.62370841	     -5.21472937	      1.77561865	      0.03099039	     -7.66966578	      0.00000000	      0.00000000	     46.04938568	      0.34638662	     -3.25225640	     90.96507418	      1.58764005	     28.10976367	      0.00000000	      0.00000000	    -25.99445346	     -2.00452682	      2.31024108	     89.95731137	     -2.67208094	     13.37070017	     42.69497941	     75.10017538	      0.00000000	      0.00000000	     89.96888214	     -0.65107876	     21.58510223	     49.21612604	     59.37891802	      0.00000000	      0.00000000
      2.78500000	      5.82109737	     -1.84229479	      4.72114088	     -0.37967524	      0.79813087	     -1.06457388	     48.50609075	     -4.63926494	     -5.34913528	      1.64456184	      0.02870302	     -8.23232577	      0.00000000	      0.00000000	     46.18682685	      0.29819443	     -3.28839005	     91.17127999	      1.59123902	     27.96448802	      0.00000000	      0.00000000	    -26.04014705	     -2.07162600	      2.22178166	     89.95755399	     -2.62489160	     12.67033517	     42.67544604	     79.53667045	      0.00000000	      0.00000000	     89.96904773	     -0.56112280	     21.39555350	     49.22749133	     58.41912449	      0.00000000	      0.00000000
      2.79000000	      5.75017716	     -1.93710522	      4.74780626	     -0.37982221	      0.79699498	     -1.06435379	     48.66420340	     -4.56561996	     -5.50208703	      1.61121511	      0.02812101	     -8.37478450	      0.00000000	      0.00000000	     46.40606637	      0.14738020	     -3.27135250	     91.38529639	      1.59497431	     28.02637556	      0.00000000	      0.00000000	    -26.01827453	     -2.01479552	      2.16382027	     89.95777145	     -2.60433339	     13.16647545	     42.90598809	     74.64628067	      0.00000000	      0.00000000	     89.96916292	     -0.59892702	     21.38242366	     49.45793597	     55.73536413	      0.00000000	      0.00000000
      2.79500000	      5.62880565	     -1.88968970	      4.77358771	     -0.38005756	      0.79585928	     -1.06411430	     48.88803218	     -4.61393862	     -5.46118409	      1.59175790	      0.02778142	     -8.34893535	      0.00000000	      0.00000000	     46.65692760	      0.13305384	     -3.34994314	     91.53875663	      1.59765270	     27.96828816	      0.00000000	      0.00000000	    -25.96167966	     -2.13525446	      2.07592322	     89.95796646	     -2.60311634	     12.49106365	     42.89381978	     79.66181341	      0.00000000	      0.00000000	     89.96932701	     -0.53935346	     21.18803572	     49.42989017	     57.43720792	      0.00000000	      0.00000000
      2.80000000	      5.53529763	     -1.90073686	      4.81373532	     -0.38027996	      0.79481843	     -1.06403929	     49.05999388	     -4.61782101	     -5.37877649	      1.61931169	      0.02826232	     -7.99838341	      0.00000000	      0.00000000	     46.87732634	      0.10474943	     -3.36446076	     91.72364268	      1.60087957	     28.05882645	      0.00000000	      0.00000000	    -25.95125158	     -2.15299785	      1.93746736	     89.95843475	     -2.49990608	     12.96120245	     43.07809314	     74.61699100	      0.00000000	      0.00000000	     89.96945685	     -0.59165540	     21.07481434	     49.59134043	     55.20066210	      0.00000000	      0.00000000
      2.80500000	      5.43945494	     -1.95607149	      4.91916453	     -0.38037881	      0.79381789	     -1.06396252	     49.20436327	     -4.65053816	     -5.48682938	      1.51317877	      0.02640995	     -8.46558007	      0.00000000	      0.00000000	     47.11232759	      0.05644176	     -3.33504341	     91.90496013	      1.60404415	     27.90472855	      0.00000000	      0.00000000	    -25.89513383	     -2.11380270	      1.79858884	     89.95844657	     -2.44277321	     13.82569130	     43.41076335	     64.93507367	      0.00000000	      0.00000000	     89.96949100	     -0.52663560	     20.95629601	     49.70788679	     51.42786899	      0.00000000	      0.00000000
      2.81000000	      5.36178523	     -2.01654014	      4.97690302	     -0.38044957	      0.79287698	     -1.06379013	     49.36110424	     -4.63134900	     -5.54434178	      1.54129005	      0.02690059	     -8.32786526	      0.00000000	      0.00000000	     47.29534299	     -0.03924501	     -3.33817145	     92.06372008	      1.60681504	     27.99080523	      0.00000000	      0.00000000	    -25.88358436	     -2.10679768	      1.76022061	     89.95876548	     -2.45208277	     12.10291640	     43.12545957	     79.34090796	      0.00000000	      0.00000000	     89.96958291	     -0.50272255	     20.83454006	     49.72418564	     54.71488453	      0.00000000	      0.00000000
